<svg id="Component_3_1" data-name="Component 3 – 1" xmlns="http://www.w3.org/2000/svg" width="145.887" height="90.991" viewBox="0 0 145.887 90.991">
  <path id="Path_5" data-name="Path 5" d="M11.09-56.776a38.866,38.866,0,0,1,21.022-5.683q22.07,0,22.07,23.174V-1.232a1.6,1.6,0,0,1-.158.938A1.071,1.071,0,0,1,53.246,0H44.518A1.126,1.126,0,0,1,43.7-.294a1.739,1.739,0,0,1-.221-.981V-9.435H43.2Q36.857,1.435,24.5,1.435q-8.883,0-14.125-4.8T5.131-16.332q0-17.1,20.25-19.918l18.1-2.538q0-14.953-12.359-14.953A30.911,30.911,0,0,0,11.09-46.348Zm18.1,28.084q-7.5.993-10.345,3.752T16-17.215a9.1,9.1,0,0,0,3.09,7.118,11.8,11.8,0,0,0,8.166,2.759A15.144,15.144,0,0,0,38.9-12.3a17.686,17.686,0,0,0,4.58-12.47v-5.849ZM124.317-.212a1.2,1.2,0,0,1-.785.212h-9.156a.575.575,0,0,1-.4-.212,1.494,1.494,0,0,1-.191-.581v-9.269h-.219Q106.952,1.422,93.006,1.422q-11.484,0-18.266-8.176T67.959-28.82q0-14.984,7.656-24.035t20.016-9.051q12.359,0,17.937,9.625h.219V-87.926a6.906,6.906,0,0,1,.294-1.159c.14-.279.837-.438.837-.438s8.049-.075,8.518,0a1.129,1.129,0,0,1,.832.438,3.549,3.549,0,0,1,.238,1.3v86.8A1.141,1.141,0,0,1,124.317-.212ZM112.842-36.25c0-4.849-2.67-8.506-4.51-10.775s-7.433-4.108-12.1-4.108c-4.272.184-8.135,1.1-10.4,2.7-2.453,1.349-5.115,7.472-5.115,7.472S78.9-33.893,78.9-29.312q0,10.117,4.73,16C86.781-9.4,90.983-8.437,96.233-8.437c5.177,0,9.4-3.27,11.425-5.416s5.184-5.374,5.184-11.1Zm20.267,22.4Z" transform="translate(-5.131 89.557)" fill="#7510f7"/>
  <path id="Path_6" data-name="Path 6" d="M2,0H9a2,2,0,0,1,2,2V59c0,1.1.223,2-.881,2H.969C-.136,61,0,60.1,0,59V2A2,2,0,0,1,2,0Z" transform="translate(134.869 28.557)" fill="#7510f7"/>
  <circle id="Ellipse_1" data-name="Ellipse 1" cx="5.5" cy="5.5" r="5.5" transform="translate(134.869 12.557)" fill="#7510f7"/>
</svg>
