<svg version="1.1" id="Layer_1" xmlns="http://www.w3.org/2000/svg" xmlns:xlink="http://www.w3.org/1999/xlink" x="0px" y="0px"
	 width="100%" viewBox="0 0 1470 1142" enable-background="new 0 0 1470 1142" xml:space="preserve">
<path fill="#FFFFFF" opacity="1.000000" stroke="none" 
	d="
M862.000000,1143.000000 
	C574.666687,1143.000000 287.833344,1143.000000 1.000000,1143.000000 
	C1.000000,762.333313 1.000000,381.666656 1.000000,1.000000 
	C491.000000,1.000000 981.000000,1.000000 1471.000000,1.000000 
	C1471.000000,381.666656 1471.000000,762.333313 1471.000000,1143.000000 
	C1268.166626,1143.000000 1065.333374,1143.000000 862.000000,1143.000000 
M593.308899,753.799377 
	C599.751404,744.433289 606.193909,735.067261 612.657288,725.670776 
	C612.827148,725.887207 612.985901,725.995605 612.993591,726.113953 
	C613.058105,727.106567 613.138550,728.101196 613.133545,729.094788 
	C613.069641,741.801514 617.861145,752.411255 627.015320,761.104126 
	C635.408875,769.074585 647.733215,771.514221 657.992920,766.267456 
	C664.292419,763.045959 670.354492,758.950500 675.657593,754.267334 
	C691.519104,740.259644 703.732483,723.184631 715.036316,705.431824 
	C715.737732,704.330139 716.575134,703.315063 717.349304,702.259705 
	C718.243042,705.374084 718.135742,708.033386 718.272339,710.679993 
	C718.417908,713.500061 718.634766,716.334595 719.094543,719.117493 
	C723.517395,745.889160 737.336548,765.224854 763.541199,774.419067 
	C781.431335,780.696106 799.635681,779.363098 817.700928,775.374390 
	C842.075439,769.992615 861.067810,755.486023 877.916443,738.010315 
	C895.806824,719.454407 909.362854,697.788147 918.852234,673.951843 
	C933.648926,636.784241 944.515442,598.314148 953.984497,559.474792 
	C960.323853,533.472595 966.470398,507.390472 962.632202,479.811523 
	C963.799255,479.524567 965.229431,479.230255 966.625671,478.820251 
	C975.382263,476.248749 984.250122,473.988342 992.845154,470.955872 
	C999.705078,468.535553 1005.619751,464.279633 1009.208679,457.711731 
	C1012.017883,452.570892 1014.759521,447.195221 1012.296326,441.314667 
	C1008.450012,442.636047 1005.112000,444.394012 1001.599426,444.873138 
	C991.722534,446.220398 981.785095,447.777252 971.851257,447.929718 
	C943.528259,448.364380 915.195068,448.197662 886.866150,448.143066 
	C879.278992,448.128418 872.892944,450.662628 868.994263,457.139679 
	C864.883179,463.969574 863.271912,471.628082 864.323669,479.717957 
	C864.786804,483.280334 866.457092,484.056061 870.040039,483.944183 
	C889.503906,483.336517 908.979431,483.098236 928.451416,482.764221 
	C928.893066,482.756622 929.341125,483.120850 930.171143,483.476624 
	C930.094116,485.182800 930.227661,487.012604 929.897461,488.754456 
	C927.821289,499.707184 926.221069,510.792603 923.393311,521.552917 
	C912.905579,561.462097 902.251465,601.331482 891.168274,641.078735 
	C883.639954,668.077271 872.804138,693.518738 853.418640,714.568970 
	C831.394836,738.484131 804.658997,749.039734 772.226562,744.007935 
	C748.495544,740.326111 734.454834,718.555969 741.016357,695.702942 
	C748.331543,670.225098 766.712708,656.919006 791.463257,652.493225 
	C799.737488,651.013672 802.940857,647.696960 804.416809,640.602234 
	C804.755432,638.974365 805.338379,637.391296 805.599121,635.754211 
	C807.440369,624.192017 797.726624,612.533386 787.597961,614.653015 
	C772.350159,617.843750 758.861145,624.396851 747.279663,635.299622 
	C734.666199,647.173889 727.981384,662.857300 718.985596,676.997314 
	C711.368042,688.970947 704.643921,701.454041 693.710815,710.829529 
	C686.403687,717.095703 678.350098,721.999634 668.250671,722.171387 
	C661.536865,722.285583 659.046509,720.364746 659.914856,713.616516 
	C660.861328,706.260620 662.509155,698.846619 664.994507,691.864929 
	C672.524963,670.710754 680.649841,649.768860 688.454163,628.711243 
	C691.232300,621.215454 689.791382,614.139954 684.963928,608.017395 
	C678.107483,599.321533 661.256104,594.783997 650.630676,598.284424 
	C647.856873,599.198181 646.753235,600.778442 646.915710,603.835022 
	C647.108337,607.457703 647.083496,611.211975 646.355286,614.744812 
	C639.566956,647.676025 627.499695,678.541138 609.158142,706.777893 
	C603.260803,715.856873 596.599915,724.490845 586.210510,729.120056 
	C578.503662,732.554077 572.525757,729.415283 571.168701,721.117371 
	C570.848022,719.156494 570.677185,717.113342 570.839355,715.141174 
	C571.588318,706.035095 572.000000,696.865967 573.407104,687.855957 
	C578.028625,658.262634 585.349426,629.271240 593.794312,600.557922 
	C602.529419,570.857727 611.967346,541.385437 624.663757,513.102661 
	C629.624268,502.052887 634.863342,490.982300 645.191101,483.481628 
	C645.877747,482.982910 645.808777,479.868134 645.074280,479.311035 
	C643.469055,478.093567 641.242493,477.256561 639.210815,477.116150 
	C630.490356,476.513611 623.414734,480.642151 616.960022,485.821564 
	C605.070801,495.361786 596.668884,507.750854 589.274780,520.866516 
	C575.474243,545.345764 565.684692,571.513306 556.936584,598.115662 
	C556.193298,600.375977 555.085571,602.516479 553.993835,605.071533 
	C552.206909,604.005859 550.959290,603.484375 549.986328,602.644653 
	C544.596619,597.993164 538.385132,596.558655 531.391907,597.231201 
	C502.074921,600.050964 478.533203,614.200378 458.454559,634.754639 
	C447.315460,646.157532 438.907623,659.538940 432.610535,674.233582 
	C421.170654,700.929016 422.404449,727.190491 436.064423,752.591675 
	C443.208405,765.876099 451.518585,769.105713 468.066498,763.438599 
	C480.454559,759.196045 490.125244,750.862061 497.879913,740.766418 
	C508.097290,727.464539 517.325256,713.403259 527.006470,699.688171 
	C527.941772,698.363159 529.073059,697.176514 530.113342,695.925598 
	C530.373657,704.783936 529.789856,713.046509 528.774048,721.255676 
	C526.800903,737.202637 530.975159,751.828491 539.379944,764.968811 
	C547.613159,777.840942 561.240417,782.826111 574.766418,772.145386 
	C581.368408,766.932251 586.880981,760.339600 593.308899,753.799377 
M1047.858398,511.469055 
	C1048.215332,510.360016 1048.526733,509.233856 1048.936035,508.144470 
	C1057.947021,484.157013 1066.740845,460.084137 1076.101807,436.233856 
	C1079.815063,426.773010 1085.034790,418.000336 1093.035156,411.230164 
	C1094.335205,410.129913 1096.085693,407.540833 1095.656494,406.829987 
	C1094.703125,405.250641 1092.628052,403.861298 1090.772949,403.440338 
	C1088.605103,402.948395 1086.143433,403.341431 1083.880737,403.747925 
	C1074.810303,405.377533 1067.586182,410.534058 1061.281372,416.788574 
	C1047.387451,430.571564 1037.715820,447.367828 1029.011597,464.641205 
	C1011.251221,499.886383 998.761597,537.186707 988.325073,575.100098 
	C976.931946,616.488586 966.687805,658.194275 956.051636,699.789612 
	C952.581055,713.362305 949.705933,727.138672 952.259460,741.182495 
	C954.361877,752.745178 959.366089,762.802246 971.210144,767.464111 
	C976.970154,769.731262 984.248535,768.484741 984.127869,760.301514 
	C984.111328,759.183716 984.607910,758.021729 985.022095,756.939575 
	C990.966370,741.408813 996.354431,725.632202 1003.036804,710.424622 
	C1013.367493,686.914490 1025.437012,664.283569 1041.012817,643.700806 
	C1045.744873,637.447632 1051.599487,632.586792 1058.928101,629.830811 
	C1061.032593,629.039490 1064.372803,628.696838 1065.833252,629.834412 
	C1067.270020,630.953613 1067.782837,634.345154 1067.397339,636.507141 
	C1066.379150,642.218445 1064.828491,647.855164 1063.180664,653.430176 
	C1056.434692,676.253174 1049.150391,698.926758 1042.890015,721.880615 
	C1037.994141,739.831543 1040.472168,756.995544 1052.770264,771.686096 
	C1059.337402,779.530884 1071.384155,784.922913 1082.232544,777.658691 
	C1087.179321,774.346252 1092.734863,771.274353 1096.340332,766.757263 
	C1105.863647,754.826660 1114.568848,742.234375 1123.392090,729.758545 
	C1126.484131,725.386414 1128.970459,720.585815 1132.453979,714.779785 
	C1132.843628,717.319641 1133.023682,718.382324 1133.167969,719.449829 
	C1135.102539,733.768860 1138.649658,747.496216 1147.405640,759.401062 
	C1156.414307,771.649536 1168.835449,773.220398 1180.667847,763.849915 
	C1192.491211,754.486450 1201.272095,742.610535 1209.199097,730.039062 
	C1214.490234,721.647949 1219.316040,712.963379 1225.005859,703.296021 
	C1225.005859,705.617371 1225.172241,706.698181 1224.978149,707.709839 
	C1223.914185,713.254761 1222.726440,718.775940 1221.646729,724.318054 
	C1219.035767,737.719849 1219.237549,750.858398 1226.151733,763.103088 
	C1236.161743,780.830139 1256.314453,790.593811 1274.012085,773.355591 
	C1282.538696,765.050232 1290.658447,756.051819 1297.479980,746.327332 
	C1312.817383,724.463013 1324.830933,700.634094 1336.022705,676.414978 
	C1336.413574,675.568787 1336.517456,674.589966 1336.742188,673.723022 
	C1329.904785,670.469238 1326.027588,671.915283 1322.619385,677.904297 
	C1315.053589,691.198181 1307.603271,704.588989 1299.306885,717.423767 
	C1294.428833,724.970276 1287.916992,731.375000 1278.771484,734.142029 
	C1271.493530,736.343994 1266.062866,733.129089 1265.202148,725.500854 
	C1264.740112,721.406616 1264.608521,717.084045 1265.388672,713.070862 
	C1271.677368,680.723938 1281.353516,649.521301 1297.595215,620.626709 
	C1301.106934,614.379333 1299.612305,610.351868 1292.781006,608.098511 
	C1285.672607,605.753723 1278.863159,607.168945 1272.515015,610.548035 
	C1269.598999,612.100281 1268.167236,611.175476 1265.665894,609.532349 
	C1260.632690,606.226074 1255.226318,602.526611 1249.503662,601.419006 
	C1234.814941,598.575989 1220.729614,602.716125 1207.416748,608.594666 
	C1176.719482,622.149658 1154.487549,644.545593 1140.654663,675.084167 
	C1133.550415,690.768127 1125.607422,705.900513 1114.862671,719.427979 
	C1109.776611,725.831360 1103.408691,730.582397 1095.622437,733.150513 
	C1089.183594,735.274048 1085.079224,732.492981 1084.841431,725.659241 
	C1084.686646,721.208557 1084.706909,716.536011 1085.868652,712.297241 
	C1088.901489,701.230896 1092.342163,690.256897 1096.109497,679.416199 
	C1100.641968,666.374451 1106.345215,653.707886 1110.302856,640.507446 
	C1113.942749,628.366882 1111.500732,616.960571 1100.893799,608.675659 
	C1093.017090,602.523254 1083.996338,603.504578 1075.085083,605.716187 
	C1055.834961,610.493774 1041.741333,622.783997 1030.268921,638.123657 
	C1020.592102,651.062500 1011.895142,664.734070 1002.672729,678.215454 
	C1002.823486,676.833252 1002.785828,675.275391 1003.183899,673.838257 
	C1005.706543,664.731995 1008.402466,655.673523 1010.899841,646.560547 
	C1023.168823,601.791016 1035.393433,557.009338 1047.858398,511.469055 
M346.986389,484.499725 
	C336.328186,495.269379 325.190643,505.611481 315.118317,516.903687 
	C297.728485,536.399658 280.740845,556.270996 264.078674,576.394043 
	C251.236740,591.903381 239.216888,608.091553 226.637802,623.822937 
	C225.282043,625.518494 222.637177,627.166443 220.587128,627.170410 
	C201.460571,627.206970 182.087112,628.133301 165.340240,616.112244 
	C163.052658,614.470215 161.460007,615.573792 160.974167,618.004028 
	C160.630188,619.724609 160.478470,621.667664 160.921570,623.329956 
	C162.893738,630.728699 168.179794,635.206360 175.063522,637.655945 
	C180.213440,639.488586 185.582718,640.839844 190.956711,641.872559 
	C197.245117,643.081055 203.644653,643.711182 210.739990,644.695496 
	C209.694855,646.348511 208.985275,647.560547 208.190948,648.714233 
	C186.854370,679.702759 165.380630,710.598206 144.273148,741.741943 
	C140.032867,747.998413 136.879486,755.062012 133.807617,762.011047 
	C132.195862,765.657043 132.904938,769.757690 136.314651,772.448730 
	C140.052994,775.399109 144.145248,773.625183 146.819351,771.132507 
	C151.977707,766.323914 157.524414,761.345032 160.905853,755.313232 
	C181.607742,718.384705 203.902496,682.483826 228.333496,647.917114 
	C229.462326,646.319885 231.903839,644.877380 233.828186,644.746338 
	C243.290863,644.101990 252.794159,644.082520 262.267029,643.554138 
	C290.013672,642.006165 317.750458,640.281921 345.496765,638.727844 
	C350.262695,638.460876 355.056396,638.690063 360.534668,638.690063 
	C359.745178,641.776001 359.201935,643.985046 358.614563,646.182312 
	C351.269836,673.655457 343.107056,700.944702 336.883392,728.669312 
	C333.332153,744.489197 336.195862,759.987732 350.022186,771.271179 
	C354.184845,774.668335 358.824829,776.391602 364.301239,776.160889 
	C368.180023,775.997559 370.067902,774.113525 370.722168,770.531250 
	C371.349152,767.098083 371.776642,763.609497 372.676544,760.248169 
	C380.381378,731.468628 388.142456,702.703979 395.957275,673.954102 
	C398.565643,664.358154 401.378418,654.817749 404.355072,644.346863 
	C410.083221,647.583252 415.226288,650.489014 421.291351,653.915771 
	C421.686890,652.000305 422.909515,649.742432 422.239380,648.691345 
	C419.315002,644.104431 416.414581,639.208435 412.389832,635.707092 
	C408.996399,632.755005 407.965668,630.584595 409.172119,626.212585 
	C421.077423,583.068787 432.473846,539.793457 439.398468,495.499634 
	C441.323120,483.188232 443.463348,470.866943 440.875092,458.320618 
	C437.802582,443.426971 428.581696,435.382904 414.765503,437.400452 
	C408.545197,438.308807 402.186310,440.959229 396.782043,444.273346 
	C378.684113,455.371887 362.657990,469.185638 346.986389,484.499725 
M681.883911,573.925720 
	C698.562744,576.967285 709.939697,564.790161 712.646240,554.018921 
	C715.171875,543.967712 711.711426,533.258118 704.049927,528.263611 
	C696.286743,523.202820 685.932373,524.073547 677.499451,530.512207 
	C668.478577,537.399780 665.805603,546.861816 667.235962,557.565979 
	C668.324158,565.709717 673.545044,570.861816 681.883911,573.925720 
z"/>
<path fill="#61C4DD" opacity="1.000000" stroke="none" 
	d="
M593.097778,754.085388 
	C586.880981,760.339600 581.368408,766.932251 574.766418,772.145386 
	C561.240417,782.826111 547.613159,777.840942 539.379944,764.968811 
	C530.975159,751.828491 526.800903,737.202637 528.774048,721.255676 
	C529.789856,713.046509 530.373657,704.783936 530.113342,695.925598 
	C529.073059,697.176514 527.941772,698.363159 527.006470,699.688171 
	C517.325256,713.403259 508.097290,727.464539 497.879913,740.766418 
	C490.125244,750.862061 480.454559,759.196045 468.066498,763.438599 
	C451.518585,769.105713 443.208405,765.876099 436.064423,752.591675 
	C422.404449,727.190491 421.170654,700.929016 432.610535,674.233582 
	C438.907623,659.538940 447.315460,646.157532 458.454559,634.754639 
	C478.533203,614.200378 502.074921,600.050964 531.391907,597.231201 
	C538.385132,596.558655 544.596619,597.993164 549.986328,602.644653 
	C550.959290,603.484375 552.206909,604.005859 553.993835,605.071533 
	C555.085571,602.516479 556.193298,600.375977 556.936584,598.115662 
	C565.684692,571.513306 575.474243,545.345764 589.274780,520.866516 
	C596.668884,507.750854 605.070801,495.361786 616.960022,485.821564 
	C623.414734,480.642151 630.490356,476.513611 639.210815,477.116150 
	C641.242493,477.256561 643.469055,478.093567 645.074280,479.311035 
	C645.808777,479.868134 645.877747,482.982910 645.191101,483.481628 
	C634.863342,490.982300 629.624268,502.052887 624.663757,513.102661 
	C611.967346,541.385437 602.529419,570.857727 593.794312,600.557922 
	C585.349426,629.271240 578.028625,658.262634 573.407104,687.855957 
	C572.000000,696.865967 571.588318,706.035095 570.839355,715.141174 
	C570.677185,717.113342 570.848022,719.156494 571.168701,721.117371 
	C572.525757,729.415283 578.503662,732.554077 586.210510,729.120056 
	C596.599915,724.490845 603.260803,715.856873 609.158142,706.777893 
	C627.499695,678.541138 639.566956,647.676025 646.355286,614.744812 
	C647.083496,611.211975 647.108337,607.457703 646.915710,603.835022 
	C646.753235,600.778442 647.856873,599.198181 650.630676,598.284424 
	C661.256104,594.783997 678.107483,599.321533 684.963928,608.017395 
	C689.791382,614.139954 691.232300,621.215454 688.454163,628.711243 
	C680.649841,649.768860 672.524963,670.710754 664.994507,691.864929 
	C662.509155,698.846619 660.861328,706.260620 659.914856,713.616516 
	C659.046509,720.364746 661.536865,722.285583 668.250671,722.171387 
	C678.350098,721.999634 686.403687,717.095703 693.710815,710.829529 
	C704.643921,701.454041 711.368042,688.970947 718.985596,676.997314 
	C727.981384,662.857300 734.666199,647.173889 747.279663,635.299622 
	C758.861145,624.396851 772.350159,617.843750 787.597961,614.653015 
	C797.726624,612.533386 807.440369,624.192017 805.599121,635.754211 
	C805.338379,637.391296 804.755432,638.974365 804.416809,640.602234 
	C802.940857,647.696960 799.737488,651.013672 791.463257,652.493225 
	C766.712708,656.919006 748.331543,670.225098 741.016357,695.702942 
	C734.454834,718.555969 748.495544,740.326111 772.226562,744.007935 
	C804.658997,749.039734 831.394836,738.484131 853.418640,714.568970 
	C872.804138,693.518738 883.639954,668.077271 891.168274,641.078735 
	C902.251465,601.331482 912.905579,561.462097 923.393311,521.552917 
	C926.221069,510.792603 927.821289,499.707184 929.897461,488.754456 
	C930.227661,487.012604 930.094116,485.182800 930.171143,483.476624 
	C929.341125,483.120850 928.893066,482.756622 928.451416,482.764221 
	C908.979431,483.098236 889.503906,483.336517 870.040039,483.944183 
	C866.457092,484.056061 864.786804,483.280334 864.323669,479.717957 
	C863.271912,471.628082 864.883179,463.969574 868.994263,457.139679 
	C872.892944,450.662628 879.278992,448.128418 886.866150,448.143066 
	C915.195068,448.197662 943.528259,448.364380 971.851257,447.929718 
	C981.785095,447.777252 991.722534,446.220398 1001.599426,444.873138 
	C1005.112000,444.394012 1008.450012,442.636047 1012.296326,441.314667 
	C1014.759521,447.195221 1012.017883,452.570892 1009.208679,457.711731 
	C1005.619751,464.279633 999.705078,468.535553 992.845154,470.955872 
	C984.250122,473.988342 975.382263,476.248749 966.625671,478.820251 
	C965.229431,479.230255 963.799255,479.524567 962.632202,479.811523 
	C966.470398,507.390472 960.323853,533.472595 953.984497,559.474792 
	C944.515442,598.314148 933.648926,636.784241 918.852234,673.951843 
	C909.362854,697.788147 895.806824,719.454407 877.916443,738.010315 
	C861.067810,755.486023 842.075439,769.992615 817.700928,775.374390 
	C799.635681,779.363098 781.431335,780.696106 763.541199,774.419067 
	C737.336548,765.224854 723.517395,745.889160 719.094543,719.117493 
	C718.634766,716.334595 718.417908,713.500061 718.272339,710.679993 
	C718.135742,708.033386 718.243042,705.374084 717.349304,702.259705 
	C716.575134,703.315063 715.737732,704.330139 715.036316,705.431824 
	C703.732483,723.184631 691.519104,740.259644 675.657593,754.267334 
	C670.354492,758.950500 664.292419,763.045959 657.992920,766.267456 
	C647.733215,771.514221 635.408875,769.074585 627.015320,761.104126 
	C617.861145,752.411255 613.069641,741.801514 613.133545,729.094788 
	C613.138550,728.101196 613.058105,727.106567 612.993591,726.113953 
	C612.985901,725.995605 612.827148,725.887207 612.657288,725.670776 
	C606.193909,735.067261 599.751404,744.433289 593.097778,754.085388 
M463.077332,679.008240 
	C463.064850,682.998291 462.711792,687.021729 463.098236,690.972717 
	C464.867584,709.062500 480.220184,720.672791 497.714722,707.990356 
	C516.580017,694.314270 529.609497,676.289673 539.139404,655.348450 
	C541.493713,650.175110 541.857910,645.120544 539.840759,639.899963 
	C535.827026,629.511841 528.456299,622.447754 518.037537,618.700867 
	C516.125427,618.013184 513.529724,617.763184 511.732513,618.495911 
	C506.559906,620.604736 501.065369,622.579773 496.712067,625.927063 
	C479.378876,639.254639 468.302856,656.834106 463.077332,679.008240 
z"/>
<path fill="#61C4DD" opacity="1.000000" stroke="none" 
	d="
M1047.746094,511.850494 
	C1035.393433,557.009338 1023.168823,601.791016 1010.899841,646.560547 
	C1008.402466,655.673523 1005.706543,664.731995 1003.183899,673.838257 
	C1002.785828,675.275391 1002.823486,676.833252 1002.672729,678.215454 
	C1011.895142,664.734070 1020.592102,651.062500 1030.268921,638.123657 
	C1041.741333,622.783997 1055.834961,610.493774 1075.085083,605.716187 
	C1083.996338,603.504578 1093.017090,602.523254 1100.893799,608.675659 
	C1111.500732,616.960571 1113.942749,628.366882 1110.302856,640.507446 
	C1106.345215,653.707886 1100.641968,666.374451 1096.109497,679.416199 
	C1092.342163,690.256897 1088.901489,701.230896 1085.868652,712.297241 
	C1084.706909,716.536011 1084.686646,721.208557 1084.841431,725.659241 
	C1085.079224,732.492981 1089.183594,735.274048 1095.622437,733.150513 
	C1103.408691,730.582397 1109.776611,725.831360 1114.862671,719.427979 
	C1125.607422,705.900513 1133.550415,690.768127 1140.654663,675.084167 
	C1154.487549,644.545593 1176.719482,622.149658 1207.416748,608.594666 
	C1220.729614,602.716125 1234.814941,598.575989 1249.503662,601.419006 
	C1255.226318,602.526611 1260.632690,606.226074 1265.665894,609.532349 
	C1268.167236,611.175476 1269.598999,612.100281 1272.515015,610.548035 
	C1278.863159,607.168945 1285.672607,605.753723 1292.781006,608.098511 
	C1299.612305,610.351868 1301.106934,614.379333 1297.595215,620.626709 
	C1281.353516,649.521301 1271.677368,680.723938 1265.388672,713.070862 
	C1264.608521,717.084045 1264.740112,721.406616 1265.202148,725.500854 
	C1266.062866,733.129089 1271.493530,736.343994 1278.771484,734.142029 
	C1287.916992,731.375000 1294.428833,724.970276 1299.306885,717.423767 
	C1307.603271,704.588989 1315.053589,691.198181 1322.619385,677.904297 
	C1326.027588,671.915283 1329.904785,670.469238 1336.742188,673.723022 
	C1336.517456,674.589966 1336.413574,675.568787 1336.022705,676.414978 
	C1324.830933,700.634094 1312.817383,724.463013 1297.479980,746.327332 
	C1290.658447,756.051819 1282.538696,765.050232 1274.012085,773.355591 
	C1256.314453,790.593811 1236.161743,780.830139 1226.151733,763.103088 
	C1219.237549,750.858398 1219.035767,737.719849 1221.646729,724.318054 
	C1222.726440,718.775940 1223.914185,713.254761 1224.978149,707.709839 
	C1225.172241,706.698181 1225.005859,705.617371 1225.005859,703.296021 
	C1219.316040,712.963379 1214.490234,721.647949 1209.199097,730.039062 
	C1201.272095,742.610535 1192.491211,754.486450 1180.667847,763.849915 
	C1168.835449,773.220398 1156.414307,771.649536 1147.405640,759.401062 
	C1138.649658,747.496216 1135.102539,733.768860 1133.167969,719.449829 
	C1133.023682,718.382324 1132.843628,717.319641 1132.453979,714.779785 
	C1128.970459,720.585815 1126.484131,725.386414 1123.392090,729.758545 
	C1114.568848,742.234375 1105.863647,754.826660 1096.340332,766.757263 
	C1092.734863,771.274353 1087.179321,774.346252 1082.232544,777.658691 
	C1071.384155,784.922913 1059.337402,779.530884 1052.770264,771.686096 
	C1040.472168,756.995544 1037.994141,739.831543 1042.890015,721.880615 
	C1049.150391,698.926758 1056.434692,676.253174 1063.180664,653.430176 
	C1064.828491,647.855164 1066.379150,642.218445 1067.397339,636.507141 
	C1067.782837,634.345154 1067.270020,630.953613 1065.833252,629.834412 
	C1064.372803,628.696838 1061.032593,629.039490 1058.928101,629.830811 
	C1051.599487,632.586792 1045.744873,637.447632 1041.012817,643.700806 
	C1025.437012,664.283569 1013.367493,686.914490 1003.036804,710.424622 
	C996.354431,725.632202 990.966370,741.408813 985.022095,756.939575 
	C984.607910,758.021729 984.111328,759.183716 984.127869,760.301514 
	C984.248535,768.484741 976.970154,769.731262 971.210144,767.464111 
	C959.366089,762.802246 954.361877,752.745178 952.259460,741.182495 
	C949.705933,727.138672 952.581055,713.362305 956.051636,699.789612 
	C966.687805,658.194275 976.931946,616.488586 988.325073,575.100098 
	C998.761597,537.186707 1011.251221,499.886383 1029.011597,464.641205 
	C1037.715820,447.367828 1047.387451,430.571564 1061.281372,416.788574 
	C1067.586182,410.534058 1074.810303,405.377533 1083.880737,403.747925 
	C1086.143433,403.341431 1088.605103,402.948395 1090.772949,403.440338 
	C1092.628052,403.861298 1094.703125,405.250641 1095.656494,406.829987 
	C1096.085693,407.540833 1094.335205,410.129913 1093.035156,411.230164 
	C1085.034790,418.000336 1079.815063,426.773010 1076.101807,436.233856 
	C1066.740845,460.084137 1057.947021,484.157013 1048.936035,508.144470 
	C1048.526733,509.233856 1048.215332,510.360016 1047.746094,511.850494 
M1228.450562,671.934998 
	C1232.270996,664.174866 1236.131348,656.434082 1239.896606,648.647339 
	C1242.118286,644.052429 1241.584229,639.464966 1238.834961,635.356445 
	C1230.381958,622.724915 1218.758789,618.371643 1205.702881,627.616821 
	C1186.555908,641.175110 1174.322144,659.640320 1170.307861,682.818115 
	C1168.446289,693.566162 1170.117920,704.151672 1178.882080,712.220581 
	C1184.853882,717.718567 1189.668335,718.361572 1196.298584,713.625854 
	C1200.451904,710.659363 1204.664185,707.300476 1207.619141,703.225220 
	C1214.825317,693.287170 1221.315063,682.829712 1228.450562,671.934998 
z"/>
<path fill="#62C4DE" opacity="1.000000" stroke="none" 
	d="
M347.240814,484.251404 
	C362.657990,469.185638 378.684113,455.371887 396.782043,444.273346 
	C402.186310,440.959229 408.545197,438.308807 414.765503,437.400452 
	C428.581696,435.382904 437.802582,443.426971 440.875092,458.320618 
	C443.463348,470.866943 441.323120,483.188232 439.398468,495.499634 
	C432.473846,539.793457 421.077423,583.068787 409.172119,626.212585 
	C407.965668,630.584595 408.996399,632.755005 412.389832,635.707092 
	C416.414581,639.208435 419.315002,644.104431 422.239380,648.691345 
	C422.909515,649.742432 421.686890,652.000305 421.291351,653.915771 
	C415.226288,650.489014 410.083221,647.583252 404.355072,644.346863 
	C401.378418,654.817749 398.565643,664.358154 395.957275,673.954102 
	C388.142456,702.703979 380.381378,731.468628 372.676544,760.248169 
	C371.776642,763.609497 371.349152,767.098083 370.722168,770.531250 
	C370.067902,774.113525 368.180023,775.997559 364.301239,776.160889 
	C358.824829,776.391602 354.184845,774.668335 350.022186,771.271179 
	C336.195862,759.987732 333.332153,744.489197 336.883392,728.669312 
	C343.107056,700.944702 351.269836,673.655457 358.614563,646.182312 
	C359.201935,643.985046 359.745178,641.776001 360.534668,638.690063 
	C355.056396,638.690063 350.262695,638.460876 345.496765,638.727844 
	C317.750458,640.281921 290.013672,642.006165 262.267029,643.554138 
	C252.794159,644.082520 243.290863,644.101990 233.828186,644.746338 
	C231.903839,644.877380 229.462326,646.319885 228.333496,647.917114 
	C203.902496,682.483826 181.607742,718.384705 160.905853,755.313232 
	C157.524414,761.345032 151.977707,766.323914 146.819351,771.132507 
	C144.145248,773.625183 140.052994,775.399109 136.314651,772.448730 
	C132.904938,769.757690 132.195862,765.657043 133.807617,762.011047 
	C136.879486,755.062012 140.032867,747.998413 144.273148,741.741943 
	C165.380630,710.598206 186.854370,679.702759 208.190948,648.714233 
	C208.985275,647.560547 209.694855,646.348511 210.739990,644.695496 
	C203.644653,643.711182 197.245117,643.081055 190.956711,641.872559 
	C185.582718,640.839844 180.213440,639.488586 175.063522,637.655945 
	C168.179794,635.206360 162.893738,630.728699 160.921570,623.329956 
	C160.478470,621.667664 160.630188,619.724609 160.974167,618.004028 
	C161.460007,615.573792 163.052658,614.470215 165.340240,616.112244 
	C182.087112,628.133301 201.460571,627.206970 220.587128,627.170410 
	C222.637177,627.166443 225.282043,625.518494 226.637802,623.822937 
	C239.216888,608.091553 251.236740,591.903381 264.078674,576.394043 
	C280.740845,556.270996 297.728485,536.399658 315.118317,516.903687 
	C325.190643,505.611481 336.328186,495.269379 347.240814,484.251404 
M405.619263,476.114838 
	C403.739960,468.730713 399.484497,466.699585 392.664764,470.105988 
	C390.446472,471.213959 388.243835,472.515625 386.367065,474.118622 
	C374.483765,484.268250 362.318695,494.128265 350.943848,504.825287 
	C317.290985,536.472656 286.707581,570.945557 258.269958,607.330139 
	C253.430695,613.521729 248.789017,619.867676 243.290329,627.157532 
	C254.766052,626.373779 264.847046,625.679626 274.928864,624.998047 
	C288.527435,624.078796 302.114685,622.846497 315.728760,622.340149 
	C331.506805,621.753418 347.309021,621.671021 363.099976,621.707520 
	C366.045746,621.714355 366.766876,620.597534 367.444580,618.289734 
	C377.469635,584.151123 387.817444,550.104065 397.470612,515.861145 
	C401.064056,503.113983 403.061188,489.916809 405.619263,476.114838 
z"/>
<path fill="#62C4DE" opacity="1.000000" stroke="none" 
	d="
M681.498413,573.825317 
	C673.545044,570.861816 668.324158,565.709717 667.235962,557.565979 
	C665.805603,546.861816 668.478577,537.399780 677.499451,530.512207 
	C685.932373,524.073547 696.286743,523.202820 704.049927,528.263611 
	C711.711426,533.258118 715.171875,543.967712 712.646240,554.018921 
	C709.939697,564.790161 698.562744,576.967285 681.498413,573.825317 
z"/>
<path fill="#FDFEFF" opacity="1.000000" stroke="none" 
	d="
M463.133240,678.567627 
	C468.302856,656.834106 479.378876,639.254639 496.712067,625.927063 
	C501.065369,622.579773 506.559906,620.604736 511.732513,618.495911 
	C513.529724,617.763184 516.125427,618.013184 518.037537,618.700867 
	C528.456299,622.447754 535.827026,629.511841 539.840759,639.899963 
	C541.857910,645.120544 541.493713,650.175110 539.139404,655.348450 
	C529.609497,676.289673 516.580017,694.314270 497.714722,707.990356 
	C480.220184,720.672791 464.867584,709.062500 463.098236,690.972717 
	C462.711792,687.021729 463.064850,682.998291 463.133240,678.567627 
z"/>
<path fill="#FDFEFF" opacity="1.000000" stroke="none" 
	d="
M1228.271973,672.258179 
	C1221.315063,682.829712 1214.825317,693.287170 1207.619141,703.225220 
	C1204.664185,707.300476 1200.451904,710.659363 1196.298584,713.625854 
	C1189.668335,718.361572 1184.853882,717.718567 1178.882080,712.220581 
	C1170.117920,704.151672 1168.446289,693.566162 1170.307861,682.818115 
	C1174.322144,659.640320 1186.555908,641.175110 1205.702881,627.616821 
	C1218.758789,618.371643 1230.381958,622.724915 1238.834961,635.356445 
	C1241.584229,639.464966 1242.118286,644.052429 1239.896606,648.647339 
	C1236.131348,656.434082 1232.270996,664.174866 1228.271973,672.258179 
z"/>
<path fill="#FEFEFF" opacity="1.000000" stroke="none" 
	d="
M405.702759,476.519836 
	C403.061188,489.916809 401.064056,503.113983 397.470612,515.861145 
	C387.817444,550.104065 377.469635,584.151123 367.444580,618.289734 
	C366.766876,620.597534 366.045746,621.714355 363.099976,621.707520 
	C347.309021,621.671021 331.506805,621.753418 315.728760,622.340149 
	C302.114685,622.846497 288.527435,624.078796 274.928864,624.998047 
	C264.847046,625.679626 254.766052,626.373779 243.290329,627.157532 
	C248.789017,619.867676 253.430695,613.521729 258.269958,607.330139 
	C286.707581,570.945557 317.290985,536.472656 350.943848,504.825287 
	C362.318695,494.128265 374.483765,484.268250 386.367065,474.118622 
	C388.243835,472.515625 390.446472,471.213959 392.664764,470.105988 
	C399.484497,466.699585 403.739960,468.730713 405.702759,476.519836 
z"/>
</svg>